<svg version="1.1" id="Layer_1" xmlns="http://www.w3.org/2000/svg" xmlns:xlink="http://www.w3.org/1999/xlink" x="0px" y="0px"
	 width="100%" viewBox="0 0 960 672" enable-background="new 0 0 960 672" xml:space="preserve">
<path fill="#000000" opacity="1.000000" stroke="none" 
	d="
M702.361938,339.563599 
	C697.437317,341.024109 692.887329,342.358429 687.163269,344.037109 
	C696.657104,346.415802 705.256165,347.349640 713.244263,350.672424 
	C719.446655,353.252411 725.125671,356.495667 730.222046,360.970825 
	C743.181580,372.350616 739.798279,390.420593 729.037048,399.554626 
	C717.292603,409.523163 703.331970,413.891479 688.523193,416.322052 
	C672.043579,419.026825 655.430420,419.357269 638.775391,419.315125 
	C602.292969,419.222809 565.810120,419.298615 529.327454,419.301819 
	C522.715576,419.302399 522.678406,419.293701 522.676453,412.698242 
	C522.663269,368.719116 522.733887,324.739777 522.570068,280.761261 
	C522.552246,275.978729 523.914673,274.511078 528.753662,274.533081 
	C571.232666,274.726349 613.717346,274.324646 656.190369,274.868988 
	C674.658691,275.105682 693.101807,277.098053 709.889709,286.183594 
	C716.127563,289.559509 721.830750,293.540710 725.636108,299.666077 
	C732.039062,309.972717 729.997375,322.071655 720.624390,329.713654 
	C715.282715,334.068878 709.316528,337.331757 702.361938,339.563599 
M664.167603,359.349487 
	C657.291809,357.047272 650.069580,356.580292 642.984253,356.463959 
	C621.499695,356.111267 600.005310,356.408783 578.515930,356.266632 
	C574.306030,356.238831 572.999695,357.888062 573.081543,361.897430 
	C573.271790,371.222778 573.345825,380.559906 573.079895,389.881226 
	C572.944946,394.611664 574.858276,395.850861 579.289368,395.775513 
	C592.113098,395.557373 604.945984,395.878204 617.769836,395.663330 
	C630.899170,395.443298 644.076416,396.769470 657.153320,394.674683 
	C665.110779,393.399994 672.848755,391.398651 679.209167,386.094971 
	C686.144043,380.312256 686.277344,373.492523 679.877380,367.267242 
	C675.664978,363.169830 670.376343,361.246216 664.167603,359.349487 
M630.460205,296.336731 
	C613.157043,296.350769 595.853149,296.453979 578.551270,296.312988 
	C574.485229,296.279907 572.955200,297.582397 573.079346,301.759369 
	C573.331360,310.236847 573.136719,318.727325 573.146057,327.212433 
	C573.154236,334.644043 573.172485,334.821350 580.634216,334.555695 
	C599.427612,333.886475 618.211426,334.108246 637.007141,334.484619 
	C646.347473,334.671631 655.593872,333.231781 664.189575,329.304962 
	C670.722839,326.320282 676.692871,322.455872 676.607605,314.095856 
	C676.546753,308.138611 670.537659,302.803558 661.956787,300.304535 
	C651.982849,297.399750 641.779785,296.389832 630.460205,296.336731 
z"/>
<path fill="#000000" opacity="1.000000" stroke="none" 
	d="
M271.221252,289.067993 
	C293.695984,277.746094 317.424988,273.435699 341.957123,272.713470 
	C365.321167,272.025696 388.563354,272.775970 411.172485,279.629272 
	C426.962646,284.415649 441.772125,290.979370 453.321014,303.346649 
	C456.191132,306.420135 458.537109,309.807251 460.389893,313.577179 
	C461.663452,316.168549 461.129791,317.873596 458.154816,318.124390 
	C444.907379,319.241211 431.651184,320.253418 418.398407,321.306946 
	C416.412750,321.464783 414.854980,320.881744 413.777863,319.060913 
	C406.319061,306.452332 394.301849,300.742645 380.697937,297.942261 
	C359.785889,293.637421 339.044830,294.165436 318.791351,301.635223 
	C291.040985,311.870056 283.025513,333.630249 288.996918,360.519501 
	C292.497437,376.282318 302.262421,387.064545 317.216553,392.342194 
	C344.331818,401.911774 371.394165,401.536041 397.782288,389.333405 
	C405.045135,385.974854 411.035126,380.990295 413.751831,372.979980 
	C415.359894,368.238586 414.809692,367.275085 409.871033,367.255707 
	C393.874969,367.192932 377.876373,367.058228 361.883759,367.292572 
	C357.025879,367.363739 355.267426,365.691315 355.670135,360.943604 
	C355.964783,357.469482 355.999329,353.923401 355.659393,350.457458 
	C355.189270,345.664032 357.324341,344.574585 361.728241,344.602966 
	C386.554749,344.763031 411.382812,344.680481 436.210327,344.680267 
	C444.208466,344.680176 452.211182,344.839630 460.202728,344.609680 
	C464.108337,344.497314 465.420349,345.813385 465.392548,349.760712 
	C465.241241,371.254608 465.240997,392.750641 465.388428,414.244568 
	C465.415985,418.265778 463.886871,419.306427 460.097656,419.360962 
	C441.358582,419.630646 441.263763,419.795288 429.439301,405.192169 
	C426.748627,401.869171 424.884216,400.982300 421.058502,403.765228 
	C406.758026,414.167633 390.086029,418.297913 372.911102,420.072632 
	C345.079834,422.948486 317.392670,422.019287 290.266754,414.252808 
	C272.346527,409.121948 256.995361,399.764282 245.112976,385.313141 
	C222.492722,357.802765 226.766891,322.109619 255.122498,299.787231 
	C260.105835,295.864227 265.389130,292.388458 271.221252,289.067993 
z"/>
<path fill="#000000" opacity="1.000000" stroke="none" 
	d="
M745.412842,188.463898 
	C755.783020,198.303711 769.194336,202.383728 780.660889,209.705597 
	C791.129456,209.364105 796.983765,217.900482 804.808716,222.526184 
	C813.250305,227.516449 820.997070,233.653564 828.590881,239.917526 
	C836.064148,246.082047 842.582764,253.223068 849.552429,259.897430 
	C858.269409,268.245209 865.516663,277.615173 872.108643,287.601440 
	C872.839905,288.709290 873.490479,289.878021 874.080750,291.067047 
	C874.278564,291.465271 874.171997,292.014587 874.225037,292.797546 
	C869.776672,293.909210 865.309570,293.151733 860.905212,293.342468 
	C859.075378,293.421692 857.183289,293.062195 855.415283,293.401550 
	C844.979004,295.404541 838.441101,290.195770 833.442688,281.423462 
	C833.147522,280.024933 835.655457,281.199585 835.712280,278.856598 
	C827.987183,276.582062 824.394775,269.011230 818.529297,263.898895 
	C816.375610,262.021790 814.201599,258.296448 810.144531,261.284790 
	C809.312439,261.897705 808.249756,260.910217 807.629639,260.114441 
	C800.448120,250.898544 793.231079,241.732529 781.415466,238.349945 
	C782.030823,236.287125 783.423035,237.102890 784.453186,236.196442 
	C777.206360,232.570190 769.783630,229.460083 763.402405,224.377487 
	C765.172180,222.395508 766.191589,224.648819 767.969849,223.894684 
	C756.380066,216.903427 745.992004,208.452911 732.479309,206.199646 
	C731.820679,203.887589 734.769348,203.880234 734.764893,202.288239 
	C726.925537,194.537308 715.821777,197.862167 706.827637,194.523544 
	C707.103027,192.232971 708.912537,193.109436 710.302979,191.230301 
	C651.465515,167.909302 591.826416,149.630035 527.506836,143.478043 
	C539.724792,149.105881 551.742676,149.933258 563.330200,152.434555 
	C575.013489,154.956558 586.842834,156.907486 598.029541,161.475754 
	C550.240295,154.940887 503.021301,144.504715 454.535217,143.477036 
	C457.653259,140.663315 461.415955,141.138168 464.413239,141.865219 
	C469.270386,143.043396 472.577179,139.275299 477.205658,139.414612 
	C489.850525,139.795166 502.328064,141.668304 514.901550,142.569153 
	C515.336853,142.600342 515.787842,142.413010 517.096497,142.160828 
	C510.768707,139.568665 504.801788,139.167923 498.991913,138.463806 
	C461.192505,133.882828 423.203827,135.645035 385.276672,135.319504 
	C375.647705,135.236847 366.010132,135.841797 356.435608,133.748291 
	C353.331085,133.069473 349.862640,134.208618 346.555725,134.276749 
	C324.750427,134.725922 303.189758,137.151474 281.758728,141.277298 
	C258.589722,145.737686 235.220612,149.153931 212.190048,154.354065 
	C195.617813,158.095947 179.197998,162.381409 163.420883,168.824158 
	C162.277130,169.291214 161.143539,170.362930 159.709457,169.281265 
	C160.065338,166.978195 162.223022,166.762924 163.707855,165.975311 
	C189.520554,152.283432 217.251617,144.088089 245.588516,137.729034 
	C272.693024,131.646530 300.141815,127.935478 327.819244,125.505211 
	C345.403931,123.961159 363.074341,124.302261 380.590149,122.613892 
	C392.364380,121.478951 404.081451,120.346802 415.877258,120.810410 
	C443.278717,121.887375 470.637726,123.283844 497.932617,126.421295 
	C529.653748,130.067551 561.100159,135.267471 592.540344,140.649780 
	C605.959961,142.947113 619.069275,146.440598 632.169983,150.078140 
	C642.734558,153.011475 653.901306,153.028793 664.437439,156.209595 
	C666.345581,156.785675 669.404724,156.032318 669.206421,159.903854 
	C669.143555,161.130035 671.354858,161.167587 672.560181,161.572403 
	C688.824524,167.034973 705.006592,172.674744 720.286682,180.626678 
	C723.225159,182.155869 726.584656,182.553909 729.965210,182.733231 
	C735.529541,183.028381 740.726074,184.620316 745.412842,188.463898 
z"/>
<path fill="#000000" opacity="1.000000" stroke="none" 
	d="
M175.796661,263.076965 
	C177.475555,265.583282 179.269394,264.232727 180.904129,263.692902 
	C190.666901,260.469025 200.533432,257.484711 208.825745,251.515030 
	C210.886322,252.942535 209.219070,254.756134 210.226440,255.967041 
	C221.087250,256.552185 225.917084,244.954803 235.391495,243.080505 
	C236.885223,244.417587 234.843781,245.396164 236.177322,247.556915 
	C292.811523,229.126434 351.881409,222.108063 410.921844,214.621429 
	C388.858643,211.497437 367.235474,217.336990 345.327942,217.262268 
	C392.728882,205.665665 441.218750,206.907761 489.233276,203.908005 
	C489.688141,206.246460 488.879150,206.821365 488.146729,206.865234 
	C476.343353,207.571884 465.203613,213.355789 453.192383,211.857315 
	C445.922363,210.950348 439.099396,213.396225 431.080902,213.159012 
	C438.536346,215.730743 473.711456,214.612701 489.933044,211.635452 
	C490.114075,210.427094 487.913269,210.954910 488.585541,209.476944 
	C491.661987,208.348343 504.940613,208.264145 509.670593,209.415680 
	C510.136627,210.835800 508.558746,210.774796 508.059296,211.642578 
	C508.514648,211.788956 508.934235,211.949097 509.366547,212.058838 
	C513.472595,213.101013 517.668274,212.756790 521.810791,212.638992 
	C540.343628,212.112045 558.958435,213.277893 576.843628,217.302094 
	C592.242981,220.766937 608.006714,222.060394 623.236816,226.391647 
	C632.137024,228.922775 641.659180,228.528793 650.844971,230.226562 
	C671.054810,233.961868 690.547974,240.021194 709.856018,246.860107 
	C731.708435,254.600250 752.810425,264.066559 773.579346,274.314301 
	C774.612305,274.824005 775.749207,275.194733 776.015259,276.543823 
	C774.457153,277.947906 773.111877,276.763153 771.816956,276.272949 
	C731.418640,260.980713 689.912964,249.601349 647.668945,240.722092 
	C626.192200,236.207886 604.580078,232.489594 582.846497,229.639267 
	C572.575562,228.292236 562.191467,227.870178 551.680664,227.948334 
	C530.949280,228.102524 510.172485,226.826767 489.415894,226.152573 
	C469.943268,225.520096 450.581146,226.494186 431.184937,227.234344 
	C399.246979,228.453064 367.764099,233.066040 336.281250,238.628967 
	C320.896790,241.347336 306.259460,245.519363 291.625854,250.431137 
	C289.413879,251.173553 286.526489,254.082733 284.472382,249.803665 
	C284.352142,249.553207 282.939087,249.817474 282.165771,250.001999 
	C266.472870,253.746719 251.047684,258.551300 235.215836,261.769897 
	C232.484421,262.325165 230.213913,264.279510 228.070923,266.211945 
	C223.249298,270.559784 217.706055,273.599487 211.034210,273.253235 
	C201.825226,272.775330 194.741730,278.529877 186.602768,281.152863 
	C182.825653,282.370117 179.315353,284.415314 175.819336,286.022980 
	C174.634827,287.080444 177.912537,288.449951 175.270111,289.363495 
	C171.826172,290.554138 168.738953,293.187531 165.064697,293.240326 
	C150.089920,293.455536 135.110275,293.329956 120.169357,293.329956 
	C119.738327,286.928741 122.796692,284.504700 128.472519,283.069061 
	C137.043579,280.901062 145.070206,277.081329 152.074478,271.455627 
	C153.747223,270.112091 155.445633,268.686920 156.298416,272.444336 
	C162.551941,268.684418 168.443100,264.570282 175.796661,263.076965 
z"/>
<path fill="#000000" opacity="1.000000" stroke="none" 
	d="
M325.297852,499.788818 
	C324.142273,510.368317 321.143463,519.261536 310.105865,522.638000 
	C303.419525,524.683350 296.707672,524.762512 289.945251,522.775208 
	C279.271698,519.638550 274.763000,511.673157 274.122803,501.469360 
	C273.331757,488.862152 272.626770,476.152252 274.570221,463.593567 
	C276.717346,449.718506 284.577972,443.259796 298.828796,442.805328 
	C314.334778,442.310883 324.443512,451.688873 325.342377,467.116516 
	C325.585724,471.293152 324.545441,473.586670 319.933594,473.048553 
	C318.782623,472.914276 317.603149,473.026367 316.436768,473.022156 
	C307.942505,472.991516 307.897278,473.002869 305.848358,465.018097 
	C305.041046,461.871979 303.792847,459.313904 300.051605,459.243958 
	C296.041840,459.168915 294.302734,461.784973 293.972534,465.211639 
	C292.773712,477.652283 292.645935,490.114227 294.092255,502.551239 
	C294.473999,505.833923 296.130127,508.396545 299.709473,508.518219 
	C303.504486,508.647217 305.339111,506.181396 305.956696,502.648438 
	C306.128143,501.667542 306.472809,500.711456 306.585052,499.726562 
	C307.503540,491.669617 307.492554,491.668335 315.797302,491.666809 
	C316.463806,491.666687 317.130310,491.665680 317.796814,491.666351 
	C325.325653,491.673889 325.325653,491.673950 325.297852,499.788818 
z"/>
<path fill="#000000" opacity="1.000000" stroke="none" 
	d="
M678.840942,463.518555 
	C684.696533,461.574951 689.940125,462.538940 695.890808,465.725769 
	C695.890808,459.641266 696.027527,454.389008 695.843506,449.148010 
	C695.717102,445.549072 697.078308,443.978760 700.739807,443.987701 
	C716.431213,444.026154 713.203796,442.914276 713.325684,455.698120 
	C713.519348,476.012024 713.266235,496.330139 713.447815,516.644287 
	C713.486023,520.921570 712.340088,522.926514 707.842590,522.371704 
	C706.038757,522.149170 704.182861,522.310059 702.352051,522.354065 
	C699.805420,522.415222 697.243774,522.558838 697.114075,518.857117 
	C694.964478,520.315063 693.306946,521.743469 691.406128,522.676331 
	C682.671875,526.962708 672.669312,522.263428 671.025024,512.672119 
	C668.729736,499.283112 669.141785,485.829529 671.841125,472.496826 
	C672.634705,468.577301 674.651672,465.392761 678.840942,463.518555 
M695.662109,504.848999 
	C696.616150,497.068726 697.478027,489.289368 695.700806,481.503174 
	C695.215271,479.376068 694.187805,477.592621 691.795898,477.716400 
	C689.701233,477.824768 688.721802,479.509338 688.362854,481.460541 
	C686.935364,489.219940 686.852356,497.005890 688.007996,504.803589 
	C688.304260,506.802765 688.621765,509.036163 691.061096,509.424744 
	C693.765991,509.855560 694.787781,507.788116 695.662109,504.848999 
z"/>
<path fill="#000000" opacity="1.000000" stroke="none" 
	d="
M424.709839,494.795227 
	C428.761353,490.803375 433.552856,488.900543 438.442444,487.193909 
	C441.442017,486.146973 444.432068,485.052124 446.807678,482.867157 
	C448.934265,480.911194 449.685333,478.563934 447.136780,476.477509 
	C444.758606,474.530609 442.484070,475.318970 440.639191,477.581909 
	C439.371124,479.137268 439.928680,482.258820 436.927185,482.288452 
	C432.444397,482.332703 427.946594,482.330109 423.482056,481.992218 
	C421.812744,481.865906 422.093353,480.083527 422.211578,478.720703 
	C422.949799,470.212585 428.240417,464.146118 436.978119,462.984833 
	C443.040833,462.179047 449.269928,461.868103 455.301056,463.748566 
	C462.784607,466.081879 466.096191,470.561493 466.328461,478.467804 
	C466.747772,492.738892 465.191864,507.074005 468.149414,521.952087 
	C461.464203,521.841309 455.026245,524.308228 448.557587,519.581604 
	C440.631073,523.798706 431.742065,526.930969 423.893768,518.286621 
	C418.754211,512.625732 419.417084,501.978577 424.709839,494.795227 
M438.279419,506.169464 
	C438.785645,508.943939 440.597076,510.036957 443.246399,509.886383 
	C445.925720,509.734131 447.396606,508.103516 448.026642,505.619720 
	C448.834259,502.435883 449.210968,499.259674 447.928040,496.128998 
	C441.311035,497.059052 438.878937,499.439545 438.279419,506.169464 
z"/>
<path fill="#000000" opacity="1.000000" stroke="none" 
	d="
M526.323730,502.824036 
	C526.578186,504.708099 526.669067,506.220520 527.115051,507.619843 
	C527.796509,509.758179 529.372009,510.832977 531.684814,510.700195 
	C534.032715,510.565460 535.696594,509.256622 535.666870,507.027924 
	C535.594666,501.618103 538.883850,501.263641 542.916687,501.678467 
	C543.246399,501.712372 543.582581,501.683228 543.915771,501.683258 
	C552.857910,501.684509 554.209290,503.634277 551.202881,512.302612 
	C549.386780,517.539062 545.786377,521.057434 540.522217,522.692688 
	C537.190186,523.727783 533.754028,524.376282 530.209717,524.277527 
	C516.791992,523.903503 511.072937,518.313965 509.515411,504.986908 
	C508.500732,496.304810 508.724091,487.731110 509.705994,479.108429 
	C510.645477,470.858551 514.888794,465.585724 522.913452,463.433777 
	C528.615601,461.904633 534.442261,461.884796 540.162598,463.510254 
	C546.934998,465.434662 550.957642,470.104858 552.034546,476.914948 
	C552.784546,481.658356 552.710388,486.532013 553.006409,491.347351 
	C553.223328,494.875000 551.807556,496.511932 548.041748,496.345490 
	C542.887695,496.117676 537.700439,496.542633 532.556152,496.223511 
	C527.839600,495.930847 525.588257,497.499695 526.323730,502.824036 
M531.593445,474.630341 
	C530.042847,474.903137 528.680237,475.602600 528.027161,477.043671 
	C526.977966,479.358734 526.149170,482.186768 528.096741,484.021240 
	C530.100525,485.908691 533.428284,485.834656 535.521667,484.285919 
	C537.847839,482.564941 536.623474,479.753632 535.598999,477.449982 
	C534.960510,476.014343 533.824036,475.080658 531.593445,474.630341 
z"/>
<path fill="#000000" opacity="1.000000" stroke="none" 
	d="
M401.004761,496.294922 
	C398.681183,496.294067 396.850342,496.290283 395.019501,496.292572 
	C387.603149,496.301819 384.879822,500.871185 388.028992,507.860687 
	C388.991333,509.996613 390.517426,510.870239 392.751770,510.711792 
	C395.097992,510.545410 396.752411,509.164520 396.612976,506.944855 
	C396.248322,501.139374 400.025146,501.640869 403.814362,501.662079 
	C414.008820,501.719147 415.722839,504.576935 411.269745,514.098633 
	C408.237854,520.581360 402.654083,523.065735 396.074554,523.878296 
	C384.254120,525.338257 371.357513,521.778687 370.306427,505.507538 
	C369.702698,496.161713 369.364471,486.898773 370.863495,477.676239 
	C371.987885,470.758453 375.854309,465.830231 382.815460,463.688660 
	C388.371216,461.979462 394.042358,462.009705 399.585449,463.208069 
	C407.898743,465.005280 412.670441,470.939270 413.281067,479.461578 
	C413.399780,481.118469 413.341614,482.788879 413.343903,484.453094 
	C413.360382,496.295410 413.358643,496.295410 401.004761,496.294922 
M394.972961,484.888580 
	C398.482330,483.899689 397.771545,481.321320 397.103149,478.910736 
	C396.446228,476.541290 395.009308,474.516083 392.352142,474.637756 
	C389.672699,474.760437 388.632141,476.933838 388.065094,479.359406 
	C386.956207,484.102325 387.842194,484.948639 394.972961,484.888580 
z"/>
<path fill="#000000" opacity="1.000000" stroke="none" 
	d="
M609.199829,460.006256 
	C609.205811,473.328888 609.200562,486.152618 609.222717,498.976288 
	C609.234375,505.692261 609.256165,505.694122 616.214844,505.705353 
	C619.712219,505.710999 623.213928,505.817505 626.705566,505.676544 
	C629.740784,505.554016 630.728516,507.001373 630.954773,509.835083 
	C631.937439,522.144653 631.815308,522.335083 619.542542,522.341675 
	C611.382019,522.346069 603.218811,522.224548 595.062195,522.404663 
	C591.334473,522.487000 589.646423,521.401245 589.668030,517.349182 
	C589.789551,494.533661 589.757935,471.716919 589.663025,448.901093 
	C589.649109,445.568451 590.739380,444.178467 594.208435,443.973602 
	C609.182678,443.089325 609.177673,443.004608 609.201904,458.008392 
	C609.202698,458.508026 609.200684,459.007690 609.199829,460.006256 
z"/>
<path fill="#000000" opacity="1.000000" stroke="none" 
	d="
M491.670227,447.682281 
	C494.620789,447.557953 495.847107,448.616119 495.660614,451.235779 
	C495.495239,453.559235 495.539429,455.896881 495.416077,458.224274 
	C495.235779,461.624542 495.774628,464.251617 500.194824,463.737427 
	C502.616486,463.455719 503.356110,465.015076 503.317017,467.170441 
	C503.283813,469.002716 503.259125,470.838562 503.334656,472.668549 
	C503.436432,475.134796 502.451172,476.475800 499.855377,476.321899 
	C496.885834,476.145844 495.481873,477.729645 495.508514,480.512939 
	C495.586548,488.662231 494.810364,496.826599 496.102051,504.959961 
	C496.514862,507.559448 497.354553,509.418365 500.236542,509.705231 
	C504.901947,510.169647 503.113739,513.828857 503.257446,516.276794 
	C503.401001,518.720947 504.166931,521.469238 500.300049,522.625854 
	C488.378906,526.191467 479.823578,520.817261 478.463013,508.515900 
	C477.470428,499.541534 478.268707,490.533569 478.002747,481.544830 
	C477.927094,478.988403 478.065399,476.758057 474.428436,476.149048 
	C470.257874,475.450745 472.099640,471.648376 471.925140,469.130493 
	C471.778717,467.017914 471.002563,464.028992 474.611572,463.756042 
	C477.636932,463.527222 477.860870,461.633789 477.975464,459.269775 
	C478.537994,447.666229 478.570618,447.667786 490.215454,447.672546 
	C490.548767,447.672699 490.882080,447.674622 491.670227,447.682281 
z"/>
<path fill="#000000" opacity="1.000000" stroke="none" 
	d="
M657.720703,523.190491 
	C654.606384,523.297424 651.952637,523.453674 649.317810,522.778931 
	C642.124329,520.936707 638.943237,516.886658 638.760437,508.472412 
	C638.564941,499.477936 638.665222,490.476410 638.690430,481.478088 
	C638.697815,478.822418 638.668091,476.572174 635.049744,476.193481 
	C631.433228,475.814972 632.684265,472.601746 632.790588,470.603180 
	C632.914978,468.266174 631.023804,464.614838 634.932922,463.914764 
	C638.382263,463.296997 638.652161,461.442322 638.703125,458.691895 
	C638.908142,447.616028 638.963257,447.862396 649.901978,447.571045 
	C654.910950,447.437653 657.073242,448.886475 656.324524,454.014557 
	C656.086426,455.645721 656.384888,457.347809 656.276062,459.006866 
	C656.082703,461.955292 656.816833,463.865570 660.325867,463.708191 
	C665.332031,463.483673 664.070312,467.373260 664.144714,470.092255 
	C664.221497,472.898987 665.180176,476.588440 660.212830,476.335327 
	C657.071167,476.175232 656.247192,477.929169 656.277710,480.722321 
	C656.361389,488.386719 656.294373,496.052612 656.349121,503.717468 
	C656.367615,506.306335 656.731262,509.298920 659.853027,509.485413 
	C665.711060,509.835358 663.797180,514.003357 664.194458,517.138000 
	C664.681030,520.977051 662.696289,522.638611 659.160583,522.997620 
	C658.829651,523.031189 658.502075,523.098816 657.720703,523.190491 
z"/>
<path fill="#000000" opacity="1.000000" stroke="none" 
	d="
M348.840271,522.314453 
	C345.363403,522.327393 342.361847,522.175476 339.381500,522.362183 
	C335.849640,522.583435 334.744659,520.975708 334.761353,517.635925 
	C334.843536,501.179199 334.845398,484.721436 334.739563,468.264923 
	C334.717316,464.805298 336.056366,463.419403 339.465454,463.653625 
	C341.781586,463.812714 344.132385,463.841766 346.441528,463.635651 
	C349.541412,463.358917 351.611420,464.220551 351.643066,468.060425 
	C355.827118,466.133148 358.532257,461.728027 363.916840,463.254059 
	C364.712799,468.412170 364.379272,473.700867 364.174225,478.961792 
	C364.069183,481.656555 361.767639,481.300842 360.011719,481.227448 
	C355.696747,481.047028 353.644012,483.202911 353.033081,487.310516 
	C351.556030,497.241150 352.752441,507.223450 352.314392,517.170410 
	C352.218353,519.350403 353.006653,522.160583 348.840271,522.314453 
z"/>
<path fill="#000000" opacity="1.000000" stroke="none" 
	d="
M67.419434,230.521805 
	C70.789139,224.790512 74.026077,219.400024 78.899757,215.401550 
	C79.345284,215.734268 79.790810,216.066986 80.236328,216.399704 
	C77.393501,220.315674 74.550674,224.231659 71.707848,228.147644 
	C71.948570,228.357590 72.189293,228.567520 72.430016,228.777466 
	C77.314499,223.042252 82.198990,217.307037 87.173172,211.466507 
	C88.962944,213.630661 87.559959,214.758347 86.743286,215.859924 
	C82.683029,221.336792 77.964806,226.351654 74.937469,232.548950 
	C73.947075,234.576385 72.349640,234.257462 70.683914,233.988571 
	C68.870476,233.695801 66.794754,233.678879 67.419434,230.521805 
z"/>
<path fill="#000000" opacity="1.000000" stroke="none" 
	d="
M160.138840,262.044678 
	C175.221237,254.035919 190.576523,247.595169 206.568207,242.618393 
	C189.577515,250.484665 172.627350,258.410034 155.759140,266.548889 
	C155.994904,263.469269 158.387268,263.444244 160.138840,262.044678 
z"/>
<path fill="#000000" opacity="1.000000" stroke="none" 
	d="
M482.185364,202.999390 
	C477.939575,202.993240 474.272034,202.528809 469.719360,200.497559 
	C475.291870,199.076263 479.753326,198.683350 484.309692,198.681305 
	C488.093292,198.679596 491.880066,198.944641 495.668640,198.049484 
	C498.674683,197.339203 500.982758,199.093353 503.364288,201.652573 
	C496.293823,203.814484 489.422699,202.759033 482.185364,202.999390 
z"/>
<path fill="#000000" opacity="1.000000" stroke="none" 
	d="
M761.771973,229.113876 
	C767.371948,232.137741 772.918091,234.579987 776.969543,239.343307 
	C760.744507,230.727661 744.155762,222.943649 727.879883,214.502884 
	C739.816650,217.646240 750.482666,223.629883 761.771973,229.113876 
z"/>
<path fill="#000000" opacity="1.000000" stroke="none" 
	d="
M52.687984,283.974182 
	C51.516991,283.688507 50.859283,282.991241 50.943974,282.160370 
	C51.779125,273.967102 53.269024,265.930542 56.978359,257.136627 
	C60.953426,267.792419 56.822018,275.820892 52.687984,283.974182 
z"/>
<path fill="#000000" opacity="1.000000" stroke="none" 
	d="
M463.815155,146.703094 
	C466.371887,147.133911 468.491302,147.499710 470.580261,147.994278 
	C471.167603,148.133362 471.665466,148.650558 472.275940,149.039948 
	C465.504028,152.546768 444.187805,150.234894 440.488312,145.012894 
	C448.482849,145.597839 455.924591,146.142334 463.815155,146.703094 
z"/>
<path fill="#000000" opacity="1.000000" stroke="none" 
	d="
M106.564880,196.431732 
	C111.832100,189.916183 113.041573,189.319916 118.505936,190.306732 
	C117.501961,193.458115 110.388344,198.861969 107.502052,198.573914 
	C106.512291,198.475143 106.220154,197.686020 106.564880,196.431732 
z"/>
<path fill="#000000" opacity="1.000000" stroke="none" 
	d="
M440.019775,139.330154 
	C437.816254,139.232117 435.983063,139.467392 434.198090,138.516296 
	C438.464508,135.373535 451.166809,136.115204 456.334198,139.977402 
	C450.692200,141.308990 445.587738,139.446304 440.019775,139.330154 
z"/>
<path fill="#000000" opacity="1.000000" stroke="none" 
	d="
M822.367310,285.752289 
	C821.105591,284.512238 819.706116,283.798492 819.811951,281.782593 
	C824.808167,284.287323 828.822632,287.904877 831.935181,292.608978 
	C827.742371,291.860229 825.831970,288.022766 822.367310,285.752289 
z"/>
<path fill="#000000" opacity="1.000000" stroke="none" 
	d="
M46.329449,285.288177 
	C46.330654,288.053558 46.330654,290.421631 46.330654,292.789703 
	C45.912930,292.805725 45.495209,292.821777 45.077484,292.837799 
	C44.336918,289.129913 43.656414,285.417664 44.609650,281.214966 
	C46.783562,282.223724 46.076385,283.726562 46.329449,285.288177 
z"/>
</svg>